<?xml version="1.0" encoding="UTF-8"?>
<svg xmlns="http://www.w3.org/2000/svg" viewBox="0 0 283.46458 283.46458">
  <defs>
    <style>
      .cls-1 {
        fill: #32419a;
      }

      .cls-1, .cls-2, .cls-3 {
        stroke-width: 0px;
      }

      .cls-2 {
        fill-rule: evenodd;
      }

      .cls-2, .cls-3 {
        fill: #fff;
      }
    </style>
  </defs>
  <g>
    <path class="cls-1" d="M141.73243,277.79493c-75.02539,0-136.06348-61.03711-136.06348-136.0625S66.70704,5.66895,141.73243,5.66895s136.0625,61.03809,136.0625,136.06348-61.03711,136.0625-136.0625,136.0625Z"/>
    <path class="cls-3" d="M141.73229,11.33859c72.01447,0,130.39369,58.37923,130.39369,130.39371s-58.37923,130.39369-130.39369,130.39369S11.33859,213.74676,11.33859,141.73229,69.71782,11.33859,141.73229,11.33859M141.73229,0c-37.85806,0-73.45018,14.74271-100.21988,41.51241C14.74271,68.28211,0,103.87424,0,141.73229s14.74271,73.45018,41.51241,100.21988c26.7697,26.7697,62.36183,41.51241,100.21988,41.51241s73.45018-14.74271,100.21988-41.51241,41.51241-62.36182,41.51241-100.21988-14.74271-73.45018-41.51241-100.21988C215.18247,14.74271,179.59036,0,141.73229,0h0Z"/>
  </g>
  <g>
    <path class="cls-2" d="M124.15192,138.98785c0,9.70939,7.87083,17.58037,17.58015,17.58037s17.58059-7.87098,17.58059-17.58037c0-9.71161-7.87127-17.58037-17.58059-17.58037s-17.58015,7.87093-17.58015,17.58037Z"/>
    <path class="cls-2" d="M205.42335,95.23575c0,6.67791,5.41356,12.09152,12.09055,12.09152,6.67885,0,12.09241-5.4136,12.09241-12.09152,0-6.67936-5.41356-12.09144-12.09241-12.09144-6.67512,0-12.09055,5.41398-12.09055,12.09144Z"/>
    <path class="cls-2" d="M164.78565,117.11184c-.00202,8.1938,6.64018,14.8359,14.83511,14.8359s14.83673-6.6421,14.83673-14.8359-6.64221-14.83595-14.83673-14.83595c-8.19291,0-14.83511,6.6421-14.83511,14.83595Z"/>
    <path class="cls-2" d="M89.00709,117.11283c0,8.19279,6.64207,14.83491,14.83592,14.83491s14.83592-6.64212,14.83592-14.83491c0-8.19441-6.64207-14.83694-14.83592-14.83694-8.19224,0-14.83592,6.64252-14.83592,14.83694Z"/>
    <path class="cls-2" d="M129.64082,95.23581c0,6.67751,5.41356,12.09146,12.09056,12.09146s12.09239-5.41208,12.09239-12.09146c0-6.67751-5.41542-12.0915-12.09239-12.0915s-12.09056,5.41399-12.09056,12.0915Z"/>
    <path class="cls-2" d="M53.85828,95.23575c0,6.67791,5.41356,12.09152,12.09241,12.09152,6.67512,0,12.09055-5.4136,12.09055-12.09152,0-6.67936-5.41356-12.09144-12.09055-12.09144-6.67885,0-12.09241,5.41398-12.09241,12.09144Z"/>
    <path class="cls-2" d="M170.27454,73.35993c0,5.16291,4.18497,9.34687,9.34787,9.34687,5.16089,0,9.34455-4.18395,9.34619-9.34687,0-5.16324-4.1853-9.34719-9.34619-9.34719-5.16289,0-9.34787,4.18559-9.34787,9.34719Z"/>
    <path class="cls-2" d="M94.49598,73.35993c0,5.16291,4.18395,9.34687,9.34719,9.34687,5.16127,0,9.34687-4.18395,9.34687-9.34687,0-5.16324-4.18395-9.34719-9.34687-9.34719-5.1616,0-9.34719,4.18559-9.34719,9.34719Z"/>
    <path class="cls-2" d="M135.12971,51.48387c0,3.64579,2.95637,6.60245,6.60313,6.60245,3.64705,0,6.60204-2.95666,6.60204-6.60245,0-3.64742-2.95499-6.60272-6.60204-6.60272-3.64542,0-6.60313,2.9553-6.60313,6.60272Z"/>
    <path class="cls-2" d="M126.89637,182.74193c0,8.19021,6.64409,14.8339,14.83594,14.8339,8.19424,0,14.8359-6.64369,14.8359-14.8339,0-8.1939-6.64166-14.83795-14.8359-14.83795-8.19185,0-14.83594,6.64405-14.83594,14.83795Z"/>
    <path class="cls-2" d="M91.75154,160.86481c0,6.67512,5.41396,12.09055,12.09147,12.09055s12.09149-5.41542,12.09149-12.09055c0-6.67885-5.41398-12.09241-12.09149-12.09241s-12.09147,5.41356-12.09147,12.09241Z"/>
    <path class="cls-2" d="M167.5301,160.86389c0,6.67562,5.41327,12.09146,12.09073,12.09146,6.67895,0,12.09073-5.41583,12.09222-12.09146,0-6.67935-5.41327-12.0915-12.09222-12.0915-6.67746,0-12.09073,5.41214-12.09073,12.0915Z"/>
    <path class="cls-2" d="M129.64082,226.49216c0,6.67946,5.41355,12.09127,12.09054,12.09127,6.67736,0,12.09055-5.41181,12.09242-12.09127,0-6.67983-5.41506-12.09168-12.09242-12.09168-6.67699,0-12.09054,5.41185-12.09054,12.09168Z"/>
    <path class="cls-2" d="M56.60272,138.98934c0,5.16159,4.18523,9.34554,9.34801,9.34554,5.16082,0,9.34605-4.18395,9.34605-9.34554,0-5.1629-4.18523-9.34852-9.34605-9.34852-5.16279,0-9.34801,4.18562-9.34801,9.34852Z"/>
    <path class="cls-2" d="M94.49598,204.61447c0,5.1629,4.18359,9.34849,9.34637,9.34849,5.16246,0,9.34605-4.18559,9.34769-9.34849,0-5.15995-4.18523-9.34557-9.34769-9.34557-5.16115,0-9.34637,4.18562-9.34637,9.34557Z"/>
    <path class="cls-2" d="M208.1678,138.98785c0,5.16188,4.18482,9.34703,9.34631,9.34703,5.16293,0,9.34775-4.18515,9.34775-9.34703,0-5.16332-4.18482-9.34703-9.34775-9.34703-5.16004,0-9.34631,4.18371-9.34631,9.34703Z"/>
    <path class="cls-2" d="M170.27454,204.61463c0,5.16261,4.18372,9.34833,9.34704,9.34833,5.16187,0,9.34702-4.18572,9.34702-9.34833,0-5.16001-4.18515-9.34573-9.34702-9.34573s-9.34704,4.18572-9.34704,9.34573Z"/>
    <path class="cls-2" d="M210.91225,182.7399c0,3.64882,2.95614,6.60258,6.6019,6.60258,3.64712,0,6.60192-2.95376,6.60326-6.60258,0-3.64614-2.95614-6.60258-6.60326-6.60258-3.64576,0-6.6019,2.95645-6.6019,6.60258Z"/>
    <path class="cls-2" d="M59.34717,182.7399c0,3.64882,2.95635,6.60258,6.6034,6.60258,3.64542,0,6.60177-2.95376,6.60177-6.60258,0-3.64614-2.95635-6.60258-6.60177-6.60258-3.64705,0-6.6034,2.95645-6.6034,6.60258Z"/>
  </g>
</svg>