<?xml version="1.0" encoding="UTF-8"?>
<svg id="Layer_1" data-name="Layer 1" xmlns="http://www.w3.org/2000/svg" viewBox="0 0 283.46 283.46">
  <defs>
    <style>
      .cls-1 {
        fill: #324398;
      }

      .cls-1, .cls-2, .cls-3 {
        stroke-width: 0px;
      }

      .cls-2 {
        fill-rule: evenodd;
      }

      .cls-2, .cls-3 {
        fill: #fff;
      }
    </style>
  </defs>
  <g id="Favicon-Circle">
    <path class="cls-1" d="M141.73,277.79c-75.03,0-136.06-61.04-136.06-136.06S66.71,5.67,141.73,5.67s136.06,61.04,136.06,136.06-61.04,136.06-136.06,136.06Z"/>
    <path class="cls-3" d="M141.73,11.34c72.01,0,130.39,58.38,130.39,130.39s-58.38,130.39-130.39,130.39S11.34,213.75,11.34,141.73,69.72,11.34,141.73,11.34M141.73,0c-37.86,0-73.45,14.74-100.22,41.51C14.74,68.28,0,103.87,0,141.73s14.74,73.45,41.51,100.22c26.77,26.77,62.36,41.51,100.22,41.51s73.45-14.74,100.22-41.51,41.51-62.36,41.51-100.22-14.74-73.45-41.51-100.22C215.18,14.74,179.59,0,141.73,0h0Z"/>
  </g>
  <g id="Icon_3" data-name="Icon 3">
    <path class="cls-2" d="M124.15,138.99c0,9.71,7.87,17.58,17.58,17.58s17.58-7.87,17.58-17.58-7.87-17.58-17.58-17.58-17.58,7.87-17.58,17.58Z"/>
    <path class="cls-2" d="M205.42,95.24c0,6.68,5.41,12.09,12.09,12.09s12.09-5.41,12.09-12.09-5.41-12.09-12.09-12.09-12.09,5.41-12.09,12.09Z"/>
    <path class="cls-2" d="M164.79,117.11c0,8.19,6.64,14.84,14.84,14.84s14.84-6.64,14.84-14.84-6.64-14.84-14.84-14.84-14.84,6.64-14.84,14.84Z"/>
    <path class="cls-2" d="M89.01,117.11c0,8.19,6.64,14.83,14.84,14.83s14.84-6.64,14.84-14.83-6.64-14.84-14.84-14.84-14.84,6.64-14.84,14.84Z"/>
    <path class="cls-2" d="M129.64,95.24c0,6.68,5.41,12.09,12.09,12.09s12.09-5.41,12.09-12.09-5.42-12.09-12.09-12.09-12.09,5.41-12.09,12.09Z"/>
    <path class="cls-2" d="M53.86,95.24c0,6.68,5.41,12.09,12.09,12.09s12.09-5.41,12.09-12.09-5.41-12.09-12.09-12.09-12.09,5.41-12.09,12.09Z"/>
    <path class="cls-2" d="M170.27,73.36c0,5.16,4.18,9.35,9.35,9.35s9.34-4.18,9.35-9.35c0-5.16-4.19-9.35-9.35-9.35s-9.35,4.19-9.35,9.35Z"/>
    <path class="cls-2" d="M94.5,73.36c0,5.16,4.18,9.35,9.35,9.35s9.35-4.18,9.35-9.35-4.18-9.35-9.35-9.35-9.35,4.19-9.35,9.35Z"/>
    <path class="cls-2" d="M135.13,51.48c0,3.65,2.96,6.6,6.6,6.6s6.6-2.96,6.6-6.6-2.95-6.6-6.6-6.6-6.6,2.96-6.6,6.6Z"/>
    <path class="cls-2" d="M126.9,182.74c0,8.19,6.64,14.83,14.84,14.83s14.84-6.64,14.84-14.83-6.64-14.84-14.84-14.84-14.84,6.64-14.84,14.84Z"/>
    <path class="cls-2" d="M91.75,160.86c0,6.68,5.41,12.09,12.09,12.09s12.09-5.42,12.09-12.09-5.41-12.09-12.09-12.09-12.09,5.41-12.09,12.09Z"/>
    <path class="cls-2" d="M167.53,160.86c0,6.68,5.41,12.09,12.09,12.09s12.09-5.42,12.09-12.09c0-6.68-5.41-12.09-12.09-12.09s-12.09,5.41-12.09,12.09Z"/>
    <path class="cls-2" d="M129.64,226.49c0,6.68,5.41,12.09,12.09,12.09s12.09-5.41,12.09-12.09c0-6.68-5.42-12.09-12.09-12.09s-12.09,5.41-12.09,12.09Z"/>
    <path class="cls-2" d="M56.6,138.99c0,5.16,4.19,9.35,9.35,9.35s9.35-4.18,9.35-9.35-4.19-9.35-9.35-9.35-9.35,4.19-9.35,9.35Z"/>
    <path class="cls-2" d="M94.5,204.61c0,5.16,4.18,9.35,9.35,9.35s9.35-4.19,9.35-9.35c0-5.16-4.19-9.35-9.35-9.35s-9.35,4.19-9.35,9.35Z"/>
    <path class="cls-2" d="M208.17,138.99c0,5.16,4.18,9.35,9.35,9.35s9.35-4.19,9.35-9.35-4.18-9.35-9.35-9.35-9.35,4.18-9.35,9.35Z"/>
    <path class="cls-2" d="M170.27,204.61c0,5.16,4.18,9.35,9.35,9.35s9.35-4.19,9.35-9.35-4.19-9.35-9.35-9.35-9.35,4.19-9.35,9.35Z"/>
    <path class="cls-2" d="M210.91,182.74c0,3.65,2.96,6.6,6.6,6.6s6.6-2.95,6.6-6.6c0-3.65-2.96-6.6-6.6-6.6s-6.6,2.96-6.6,6.6Z"/>
    <path class="cls-2" d="M59.35,182.74c0,3.65,2.96,6.6,6.6,6.6s6.6-2.95,6.6-6.6-2.96-6.6-6.6-6.6-6.6,2.96-6.6,6.6Z"/>
  </g>
</svg>