<?xml version="1.0" encoding="UTF-8"?>
<svg id="Layer_1" data-name="Layer 1" xmlns="http://www.w3.org/2000/svg" viewBox="0 0 255.1 283.46">
  <defs>
    <style>
      .cls-1 {
        fill: none;
      }

      .cls-1, .cls-2 {
        stroke-width: 0px;
      }

      .cls-2 {
        fill: #222832;
        fill-rule: evenodd;
      }
    </style>
  </defs>
  <ellipse id="Circle" class="cls-1" cx="133" cy="141.73" rx="122.1" ry="141.73"/>
  <g id="Icon_4" data-name="Icon 4">
    <path class="cls-2" d="M96.31,139.29c0,8.64,7.01,15.65,15.65,15.65s15.65-7.01,15.65-15.65-7.01-15.65-15.65-15.65-15.65,7.01-15.65,15.65Z"/>
    <path class="cls-2" d="M167.05,100.33c0,6.84,5.55,12.39,12.39,12.39s12.39-5.55,12.39-12.39-5.55-12.39-12.39-12.39-12.39,5.55-12.39,12.39Z"/>
    <path class="cls-2" d="M202.41,80.86c0,5.94,4.82,10.76,10.76,10.76s10.76-4.82,10.76-10.76-4.82-10.76-10.76-10.76-10.76,4.82-10.76,10.76Z"/>
    <path class="cls-2" d="M131.67,119.81c0,7.74,6.28,14.02,14.02,14.02s14.02-6.28,14.02-14.02-6.28-14.02-14.02-14.02-14.02,6.28-14.02,14.02Z"/>
    <path class="cls-2" d="M106.09,22.43c0,3.25,2.63,5.88,5.88,5.88s5.88-2.64,5.88-5.88-2.63-5.88-5.88-5.88-5.88,2.63-5.88,5.88Z"/>
    <path class="cls-2" d="M170.3,61.39c0,5.05,4.09,9.13,9.13,9.13s9.13-4.09,9.13-9.13-4.09-9.13-9.13-9.13-9.13,4.09-9.13,9.13Z"/>
    <path class="cls-2" d="M138.19,41.9c0,4.15,3.36,7.51,7.51,7.51s7.51-3.36,7.51-7.51-3.36-7.51-7.51-7.51-7.51,3.36-7.51,7.51Z"/>
    <path class="cls-2" d="M64.21,119.82c0,7.74,6.28,14.02,14.02,14.02s14.02-6.28,14.02-14.02-6.28-14.02-14.02-14.02-14.02,6.28-14.02,14.02Z"/>
    <path class="cls-2" d="M99.57,100.33c0,6.84,5.55,12.39,12.39,12.39s12.39-5.55,12.39-12.39-5.55-12.39-12.39-12.39-12.39,5.55-12.39,12.39Z"/>
    <path class="cls-2" d="M32.1,100.33c0,6.84,5.55,12.39,12.39,12.39s12.39-5.55,12.39-12.39-5.55-12.39-12.39-12.39-12.39,5.55-12.39,12.39Z"/>
    <path class="cls-2" d="M0,80.86c0,5.94,4.82,10.76,10.76,10.76s10.76-4.82,10.76-10.76-4.82-10.76-10.76-10.76S0,74.92,0,80.86Z"/>
    <path class="cls-2" d="M134.93,80.86c0,5.94,4.82,10.76,10.76,10.76s10.76-4.82,10.76-10.76-4.82-10.76-10.76-10.76-10.76,4.82-10.76,10.76Z"/>
    <path class="cls-2" d="M67.47,80.86c0,5.94,4.82,10.76,10.76,10.76s10.76-4.82,10.76-10.76-4.82-10.76-10.76-10.76-10.76,4.82-10.76,10.76Z"/>
    <path class="cls-2" d="M35.36,61.39c0,5.05,4.09,9.13,9.13,9.13s9.13-4.09,9.13-9.13-4.09-9.13-9.13-9.13-9.13,4.09-9.13,9.13Z"/>
    <path class="cls-2" d="M102.83,61.39c0,5.05,4.09,9.13,9.13,9.13s9.13-4.09,9.13-9.13-4.09-9.13-9.13-9.13-9.13,4.09-9.13,9.13Z"/>
    <path class="cls-2" d="M70.73,41.9c0,4.15,3.36,7.51,7.51,7.51s7.51-3.36,7.51-7.51-3.36-7.51-7.51-7.51-7.51,3.36-7.51,7.51Z"/>
    <path class="cls-2" d="M97.94,178.25c0,7.74,6.28,14.02,14.02,14.02s14.02-6.28,14.02-14.02-6.28-14.02-14.02-14.02-14.02,6.28-14.02,14.02Z"/>
    <path class="cls-2" d="M65.84,158.76c0,6.84,5.55,12.39,12.39,12.39s12.39-5.55,12.39-12.39-5.55-12.39-12.39-12.39-12.39,5.55-12.39,12.39Z"/>
    <path class="cls-2" d="M133.3,158.76c0,6.84,5.55,12.39,12.39,12.39s12.39-5.55,12.39-12.39-5.55-12.39-12.39-12.39-12.39,5.55-12.39,12.39Z"/>
    <path class="cls-2" d="M99.57,217.2c0,6.84,5.55,12.39,12.39,12.39s12.39-5.55,12.39-12.39-5.55-12.39-12.39-12.39-12.39,5.55-12.39,12.39Z"/>
    <path class="cls-2" d="M101.2,256.15c0,5.94,4.82,10.76,10.76,10.76s10.76-4.82,10.76-10.76-4.82-10.76-10.76-10.76-10.76,4.82-10.76,10.76Z"/>
    <path class="cls-2" d="M33.73,139.29c0,5.94,4.82,10.76,10.76,10.76s10.76-4.82,10.76-10.76-4.82-10.76-10.76-10.76-10.76,4.82-10.76,10.76Z"/>
    <path class="cls-2" d="M67.47,197.72c0,5.94,4.82,10.76,10.76,10.76s10.76-4.82,10.76-10.76-4.82-10.76-10.76-10.76-10.76,4.82-10.76,10.76Z"/>
    <path class="cls-2" d="M168.67,139.29c0,5.94,4.82,10.76,10.76,10.76s10.76-4.82,10.76-10.76-4.82-10.76-10.76-10.76-10.76,4.82-10.76,10.76Z"/>
    <path class="cls-2" d="M134.93,197.72c0,5.94,4.82,10.76,10.76,10.76s10.76-4.82,10.76-10.76-4.82-10.76-10.76-10.76-10.76,4.82-10.76,10.76Z"/>
    <path class="cls-2" d="M204.03,119.81c0,5.05,4.09,9.13,9.13,9.13s9.13-4.09,9.13-9.13-4.09-9.13-9.13-9.13-9.13,4.09-9.13,9.13Z"/>
    <path class="cls-2" d="M1.63,119.81c0,5.05,4.09,9.13,9.13,9.13s9.13-4.09,9.13-9.13-4.09-9.13-9.13-9.13-9.13,4.09-9.13,9.13Z"/>
    <path class="cls-2" d="M69.1,236.67c0,5.05,4.09,9.13,9.13,9.13s9.13-4.09,9.13-9.13-4.09-9.13-9.13-9.13-9.13,4.09-9.13,9.13Z"/>
    <path class="cls-2" d="M136.56,236.67c0,5.05,4.09,9.13,9.13,9.13s9.13-4.09,9.13-9.13-4.09-9.13-9.13-9.13-9.13,4.09-9.13,9.13Z"/>
    <path class="cls-2" d="M170.3,178.24c0,5.05,4.09,9.13,9.13,9.13s9.13-4.09,9.13-9.13-4.09-9.13-9.13-9.13-9.13,4.09-9.13,9.13Z"/>
    <path class="cls-2" d="M35.36,178.24c0,5.05,4.09,9.13,9.13,9.13s9.13-4.09,9.13-9.13-4.09-9.13-9.13-9.13-9.13,4.09-9.13,9.13Z"/>
    <path class="cls-2" d="M205.66,158.76c0,4.15,3.37,7.51,7.51,7.51s7.51-3.36,7.51-7.51-3.36-7.51-7.51-7.51-7.51,3.36-7.51,7.51Z"/>
    <path class="cls-2" d="M171.93,217.2c0,4.15,3.36,7.51,7.51,7.51s7.51-3.36,7.51-7.51-3.36-7.51-7.51-7.51-7.51,3.37-7.51,7.51h0Z"/>
    <path class="cls-2" d="M36.99,217.2c0,4.15,3.36,7.51,7.51,7.51s7.51-3.36,7.51-7.51-3.36-7.51-7.51-7.51-7.51,3.37-7.51,7.51h0Z"/>
    <path class="cls-2" d="M3.26,158.76c0,4.15,3.36,7.51,7.51,7.51s7.51-3.36,7.51-7.51-3.36-7.51-7.51-7.51-7.51,3.36-7.51,7.51Z"/>
    <path class="cls-2" d="M4.89,197.72c0,3.25,2.63,5.88,5.88,5.88s5.88-2.63,5.88-5.88-2.64-5.88-5.88-5.88-5.88,2.63-5.88,5.88Z"/>
    <path class="cls-2" d="M207.29,197.72c0,3.25,2.63,5.88,5.88,5.88s5.88-2.63,5.88-5.88-2.63-5.88-5.88-5.88-5.88,2.63-5.88,5.88Z"/>
  </g>
</svg>