<?xml version="1.0" encoding="UTF-8"?>
<svg id="Layer_1" data-name="Layer 1" xmlns="http://www.w3.org/2000/svg" viewBox="0 0 283.46 283.46">
  <defs>
    <style>
      .cls-1 {
        fill: #222832;
        fill-rule: evenodd;
      }

      .cls-1, .cls-2 {
        stroke-width: 0px;
      }

      .cls-2 {
        fill: none;
      }
    </style>
  </defs>
  <circle id="Circle" class="cls-2" cx="141.73" cy="141.73" r="141.73"/>
  <g id="Icon_4" data-name="Icon 4">
    <path class="cls-1" d="M125.88,139.26c0,8.75,7.1,15.85,15.85,15.85s15.85-7.1,15.85-15.85-7.1-15.85-15.85-15.85-15.85,7.1-15.85,15.85Z"/>
    <path class="cls-1" d="M197.51,99.81c0,6.93,5.62,12.55,12.55,12.55s12.55-5.62,12.55-12.55-5.62-12.55-12.55-12.55-12.55,5.62-12.55,12.55Z"/>
    <path class="cls-1" d="M233.32,80.09c0,6.02,4.88,10.9,10.9,10.9s10.9-4.88,10.9-10.9-4.88-10.9-10.9-10.9-10.9,4.88-10.9,10.9Z"/>
    <path class="cls-1" d="M161.69,119.53c0,7.84,6.36,14.2,14.2,14.2s14.2-6.36,14.2-14.2-6.36-14.2-14.2-14.2-14.2,6.36-14.2,14.2Z"/>
    <path class="cls-1" d="M135.78,20.92c0,3.29,2.66,5.95,5.95,5.95s5.95-2.67,5.95-5.95-2.66-5.95-5.95-5.95-5.95,2.66-5.95,5.95Z"/>
    <path class="cls-1" d="M200.8,60.37c0,5.11,4.14,9.25,9.25,9.25s9.25-4.14,9.25-9.25-4.14-9.25-9.25-9.25-9.25,4.14-9.25,9.25Z"/>
    <path class="cls-1" d="M168.29,40.64c0,4.2,3.4,7.6,7.6,7.6s7.6-3.4,7.6-7.6-3.4-7.6-7.6-7.6-7.6,3.4-7.6,7.6Z"/>
    <path class="cls-1" d="M93.37,119.54c0,7.84,6.36,14.2,14.2,14.2s14.2-6.36,14.2-14.2-6.36-14.2-14.2-14.2-14.2,6.36-14.2,14.2Z"/>
    <path class="cls-1" d="M129.18,99.81c0,6.93,5.62,12.55,12.55,12.55s12.55-5.62,12.55-12.55-5.62-12.55-12.55-12.55-12.55,5.62-12.55,12.55Z"/>
    <path class="cls-1" d="M60.86,99.81c0,6.93,5.62,12.55,12.55,12.55s12.55-5.62,12.55-12.55-5.62-12.55-12.55-12.55-12.55,5.62-12.55,12.55Z"/>
    <path class="cls-1" d="M28.35,80.09c0,6.02,4.88,10.9,10.9,10.9s10.9-4.88,10.9-10.9-4.88-10.9-10.9-10.9-10.9,4.88-10.9,10.9Z"/>
    <path class="cls-1" d="M164.99,80.09c0,6.02,4.88,10.9,10.9,10.9s10.9-4.88,10.9-10.9c0-6.02-4.88-10.9-10.9-10.9s-10.9,4.88-10.9,10.9Z"/>
    <path class="cls-1" d="M96.67,80.09c0,6.02,4.88,10.9,10.9,10.9s10.9-4.88,10.9-10.9-4.88-10.9-10.9-10.9-10.9,4.88-10.9,10.9Z"/>
    <path class="cls-1" d="M64.16,60.37c0,5.11,4.14,9.25,9.25,9.25s9.25-4.14,9.25-9.25-4.14-9.25-9.25-9.25-9.25,4.14-9.25,9.25Z"/>
    <path class="cls-1" d="M132.48,60.37c0,5.11,4.14,9.25,9.25,9.25s9.25-4.14,9.25-9.25-4.14-9.25-9.25-9.25-9.25,4.14-9.25,9.25Z"/>
    <path class="cls-1" d="M99.97,40.64c0,4.2,3.4,7.6,7.6,7.6s7.6-3.4,7.6-7.6-3.4-7.6-7.6-7.6-7.6,3.4-7.6,7.6Z"/>
    <path class="cls-1" d="M127.53,178.71c0,7.84,6.36,14.2,14.2,14.2s14.2-6.36,14.2-14.2-6.36-14.2-14.2-14.2-14.2,6.36-14.2,14.2Z"/>
    <path class="cls-1" d="M95.02,158.98c0,6.93,5.62,12.55,12.55,12.55s12.55-5.62,12.55-12.55-5.62-12.55-12.55-12.55-12.55,5.62-12.55,12.55Z"/>
    <path class="cls-1" d="M163.34,158.98c0,6.93,5.62,12.55,12.55,12.55s12.55-5.62,12.55-12.55c0-6.93-5.62-12.55-12.55-12.55s-12.55,5.62-12.55,12.55Z"/>
    <path class="cls-1" d="M129.18,218.15c0,6.93,5.62,12.55,12.55,12.55s12.55-5.62,12.55-12.55c0-6.93-5.62-12.55-12.55-12.55s-12.55,5.62-12.55,12.55Z"/>
    <path class="cls-1" d="M130.83,257.6c0,6.02,4.88,10.9,10.9,10.9s10.9-4.88,10.9-10.9-4.88-10.9-10.9-10.9-10.9,4.88-10.9,10.9Z"/>
    <path class="cls-1" d="M62.51,139.26c0,6.02,4.88,10.9,10.9,10.9s10.9-4.88,10.9-10.9-4.88-10.9-10.9-10.9-10.9,4.88-10.9,10.9Z"/>
    <path class="cls-1" d="M96.67,198.43c0,6.02,4.88,10.9,10.9,10.9s10.9-4.88,10.9-10.9c0-6.02-4.88-10.9-10.9-10.9s-10.9,4.88-10.9,10.9Z"/>
    <path class="cls-1" d="M199.15,139.26c0,6.02,4.88,10.9,10.9,10.9s10.9-4.88,10.9-10.9-4.88-10.9-10.9-10.9-10.9,4.88-10.9,10.9Z"/>
    <path class="cls-1" d="M164.99,198.43c0,6.02,4.88,10.9,10.9,10.9s10.9-4.88,10.9-10.9-4.88-10.9-10.9-10.9-10.9,4.88-10.9,10.9Z"/>
    <path class="cls-1" d="M234.96,119.53c0,5.11,4.14,9.25,9.25,9.25s9.25-4.14,9.25-9.25-4.14-9.25-9.25-9.25-9.25,4.14-9.25,9.25Z"/>
    <path class="cls-1" d="M30,119.53c0,5.11,4.14,9.25,9.25,9.25s9.25-4.14,9.25-9.25-4.14-9.25-9.25-9.25-9.25,4.14-9.25,9.25Z"/>
    <path class="cls-1" d="M98.32,237.87c0,5.11,4.14,9.25,9.25,9.25s9.25-4.14,9.25-9.25-4.14-9.25-9.25-9.25-9.25,4.14-9.25,9.25Z"/>
    <path class="cls-1" d="M166.64,237.87c0,5.11,4.14,9.25,9.25,9.25s9.25-4.14,9.25-9.25-4.14-9.25-9.25-9.25-9.25,4.14-9.25,9.25Z"/>
    <path class="cls-1" d="M200.8,178.7c0,5.11,4.14,9.25,9.25,9.25s9.25-4.14,9.25-9.25c0-5.11-4.14-9.25-9.25-9.25s-9.25,4.14-9.25,9.25Z"/>
    <path class="cls-1" d="M64.16,178.7c0,5.11,4.14,9.25,9.25,9.25s9.25-4.14,9.25-9.25-4.14-9.25-9.25-9.25-9.25,4.14-9.25,9.25Z"/>
    <path class="cls-1" d="M236.61,158.98c0,4.2,3.41,7.6,7.6,7.6s7.6-3.4,7.6-7.6-3.4-7.6-7.6-7.6-7.6,3.4-7.6,7.6Z"/>
    <path class="cls-1" d="M202.45,218.15c0,4.2,3.4,7.6,7.6,7.6s7.6-3.4,7.6-7.6c0-4.2-3.4-7.6-7.6-7.6s-7.6,3.41-7.6,7.61Z"/>
    <path class="cls-1" d="M65.81,218.15c0,4.2,3.4,7.6,7.6,7.6s7.6-3.4,7.6-7.6-3.4-7.6-7.6-7.6-7.6,3.41-7.6,7.61Z"/>
    <path class="cls-1" d="M31.65,158.98c0,4.2,3.4,7.6,7.6,7.6s7.6-3.4,7.6-7.6-3.4-7.6-7.6-7.6-7.6,3.4-7.6,7.6Z"/>
    <path class="cls-1" d="M33.3,198.43c0,3.29,2.66,5.95,5.95,5.95s5.95-2.66,5.95-5.95c0-3.29-2.67-5.95-5.95-5.95s-5.95,2.66-5.95,5.95Z"/>
    <path class="cls-1" d="M238.26,198.43c0,3.29,2.66,5.95,5.95,5.95s5.95-2.66,5.95-5.95-2.66-5.95-5.95-5.95-5.95,2.66-5.95,5.95Z"/>
  </g>
</svg>