<?xml version="1.0" encoding="UTF-8"?>
<svg id="Layer_1" data-name="Layer 1" xmlns="http://www.w3.org/2000/svg" viewBox="0 0 283.46 283.46">
  <defs>
    <style>
      .cls-1 {
        fill: #32419a;
      }

      .cls-1, .cls-2 {
        stroke-width: 0px;
      }

      .cls-2 {
        fill: #fff;
        fill-rule: evenodd;
      }
    </style>
  </defs>
  <circle id="Circle" class="cls-1" cx="141.73" cy="141.73" r="141.73"/>
  <g id="Icon_4" data-name="Icon 4">
    <path class="cls-2" d="M129.45,139.81c0,6.78,5.5,12.28,12.28,12.28s12.28-5.5,12.28-12.28-5.5-12.28-12.28-12.28-12.28,5.5-12.28,12.28Z"/>
    <path class="cls-2" d="M184.96,109.24c0,5.37,4.35,9.73,9.73,9.73s9.73-4.35,9.73-9.73-4.35-9.73-9.73-9.73-9.73,4.36-9.73,9.73Z"/>
    <path class="cls-2" d="M212.71,93.96c0,4.67,3.78,8.45,8.45,8.45s8.45-3.78,8.45-8.45-3.78-8.45-8.45-8.45-8.45,3.78-8.45,8.45Z"/>
    <path class="cls-2" d="M157.2,124.53c0,6.08,4.93,11.01,11,11.01s11.01-4.93,11.01-11.01-4.93-11.01-11.01-11.01-11,4.93-11,11.01Z"/>
    <path class="cls-2" d="M137.12,48.1c0,2.55,2.07,4.61,4.61,4.61s4.61-2.07,4.61-4.61-2.07-4.61-4.61-4.61-4.61,2.06-4.61,4.61Z"/>
    <path class="cls-2" d="M187.51,78.67c0,3.96,3.21,7.17,7.17,7.17s7.17-3.21,7.17-7.17-3.21-7.17-7.17-7.17-7.17,3.21-7.17,7.17Z"/>
    <path class="cls-2" d="M162.31,63.39c0,3.25,2.64,5.89,5.89,5.89s5.89-2.64,5.89-5.89-2.64-5.89-5.89-5.89-5.89,2.64-5.89,5.89Z"/>
    <path class="cls-2" d="M104.25,124.53c0,6.08,4.93,11,11.01,11s11.01-4.93,11.01-11-4.93-11.01-11.01-11.01-11.01,4.93-11.01,11.01Z"/>
    <path class="cls-2" d="M132.01,109.24c0,5.37,4.35,9.73,9.73,9.73s9.73-4.35,9.73-9.73-4.36-9.73-9.73-9.73-9.73,4.36-9.73,9.73Z"/>
    <path class="cls-2" d="M79.05,109.24c0,5.37,4.35,9.73,9.73,9.73s9.73-4.35,9.73-9.73-4.35-9.73-9.73-9.73-9.73,4.36-9.73,9.73Z"/>
    <path class="cls-2" d="M53.86,93.96c0,4.67,3.78,8.45,8.45,8.45s8.45-3.78,8.45-8.45-3.78-8.45-8.45-8.45-8.45,3.78-8.45,8.45Z"/>
    <path class="cls-2" d="M159.76,93.96c0,4.67,3.78,8.45,8.45,8.45s8.45-3.78,8.45-8.45c0-4.67-3.78-8.45-8.45-8.45s-8.45,3.78-8.45,8.45Z"/>
    <path class="cls-2" d="M106.81,93.96c0,4.67,3.78,8.45,8.45,8.45s8.45-3.78,8.45-8.45-3.78-8.45-8.45-8.45-8.45,3.78-8.45,8.45Z"/>
    <path class="cls-2" d="M81.61,78.67c0,3.96,3.21,7.17,7.17,7.17s7.17-3.21,7.17-7.17-3.21-7.17-7.17-7.17-7.17,3.21-7.17,7.17Z"/>
    <path class="cls-2" d="M134.56,78.67c0,3.96,3.21,7.17,7.17,7.17s7.17-3.21,7.17-7.17-3.21-7.17-7.17-7.17-7.17,3.21-7.17,7.17Z"/>
    <path class="cls-2" d="M109.37,63.39c0,3.25,2.64,5.89,5.89,5.89s5.89-2.64,5.89-5.89-2.64-5.89-5.89-5.89-5.89,2.64-5.89,5.89Z"/>
    <path class="cls-2" d="M130.73,170.39c0,6.08,4.93,11,11.01,11s11.01-4.93,11.01-11-4.93-11.01-11.01-11.01-11.01,4.93-11.01,11.01Z"/>
    <path class="cls-2" d="M105.53,155.1c0,5.37,4.36,9.73,9.73,9.73s9.73-4.36,9.73-9.73-4.36-9.73-9.73-9.73-9.73,4.35-9.73,9.73Z"/>
    <path class="cls-2" d="M158.48,155.1c0,5.37,4.35,9.73,9.73,9.73s9.73-4.36,9.73-9.73c0-5.37-4.35-9.73-9.73-9.73s-9.73,4.35-9.73,9.73Z"/>
    <path class="cls-2" d="M132.01,200.96c0,5.37,4.35,9.73,9.73,9.73s9.73-4.35,9.73-9.73c0-5.37-4.36-9.73-9.73-9.73s-9.73,4.35-9.73,9.73Z"/>
    <path class="cls-2" d="M133.28,231.53c0,4.67,3.78,8.45,8.45,8.45s8.45-3.78,8.45-8.45-3.78-8.45-8.45-8.45-8.45,3.78-8.45,8.45Z"/>
    <path class="cls-2" d="M80.33,139.82c0,4.67,3.78,8.45,8.45,8.45s8.45-3.78,8.45-8.45-3.78-8.45-8.45-8.45-8.45,3.78-8.45,8.45Z"/>
    <path class="cls-2" d="M106.81,185.67c0,4.67,3.78,8.45,8.45,8.45s8.45-3.78,8.45-8.45c0-4.66-3.78-8.45-8.45-8.45s-8.45,3.78-8.45,8.45Z"/>
    <path class="cls-2" d="M186.23,139.81c0,4.67,3.78,8.45,8.45,8.45s8.45-3.78,8.45-8.45-3.78-8.45-8.45-8.45-8.45,3.78-8.45,8.45Z"/>
    <path class="cls-2" d="M159.76,185.67c0,4.67,3.78,8.45,8.45,8.45s8.45-3.78,8.45-8.45-3.78-8.45-8.45-8.45-8.45,3.78-8.45,8.45Z"/>
    <path class="cls-2" d="M213.99,124.53c0,3.96,3.21,7.17,7.17,7.17s7.17-3.21,7.17-7.17-3.21-7.17-7.17-7.17-7.17,3.21-7.17,7.17Z"/>
    <path class="cls-2" d="M55.14,124.53c0,3.96,3.21,7.17,7.17,7.17s7.17-3.21,7.17-7.17-3.21-7.17-7.17-7.17-7.17,3.21-7.17,7.17Z"/>
    <path class="cls-2" d="M108.09,216.24c0,3.96,3.21,7.17,7.17,7.17s7.17-3.21,7.17-7.17-3.21-7.17-7.17-7.17-7.17,3.21-7.17,7.17Z"/>
    <path class="cls-2" d="M161.04,216.24c0,3.96,3.21,7.17,7.17,7.17s7.17-3.21,7.17-7.17-3.21-7.17-7.17-7.17-7.17,3.21-7.17,7.17Z"/>
    <path class="cls-2" d="M187.51,170.39c0,3.96,3.21,7.17,7.17,7.17s7.17-3.21,7.17-7.17c0-3.96-3.21-7.17-7.17-7.17s-7.17,3.21-7.17,7.17Z"/>
    <path class="cls-2" d="M81.61,170.39c0,3.96,3.21,7.17,7.17,7.17s7.17-3.21,7.17-7.17-3.21-7.17-7.17-7.17-7.17,3.21-7.17,7.17Z"/>
    <path class="cls-2" d="M215.27,155.1c0,3.25,2.64,5.89,5.89,5.89s5.89-2.64,5.89-5.89-2.64-5.89-5.89-5.89-5.89,2.64-5.89,5.89Z"/>
    <path class="cls-2" d="M188.79,200.96c0,3.25,2.64,5.89,5.89,5.89s5.89-2.64,5.89-5.89c0-3.25-2.64-5.89-5.89-5.89s-5.89,2.64-5.89,5.89Z"/>
    <path class="cls-2" d="M82.89,200.96c0,3.25,2.64,5.89,5.89,5.89s5.89-2.64,5.89-5.89-2.64-5.89-5.89-5.89-5.89,2.64-5.89,5.89Z"/>
    <path class="cls-2" d="M56.42,155.1c0,3.25,2.64,5.89,5.89,5.89s5.89-2.64,5.89-5.89-2.64-5.89-5.89-5.89-5.89,2.64-5.89,5.89Z"/>
    <path class="cls-2" d="M57.69,185.67c0,2.55,2.06,4.61,4.61,4.61s4.61-2.07,4.61-4.61c0-2.55-2.07-4.61-4.61-4.61s-4.61,2.07-4.61,4.61Z"/>
    <path class="cls-2" d="M216.54,185.67c0,2.55,2.06,4.61,4.61,4.61s4.61-2.07,4.61-4.61-2.06-4.61-4.61-4.61-4.61,2.07-4.61,4.61Z"/>
  </g>
</svg>