<?xml version="1.0" encoding="UTF-8"?>
<svg id="Layer_1" data-name="Layer 1" xmlns="http://www.w3.org/2000/svg" viewBox="0 0 255.11 283.46">
  <defs>
    <style>
      .cls-1 {
        fill: none;
      }

      .cls-1, .cls-2 {
        stroke-width: 0px;
      }

      .cls-2 {
        fill: #ced6dd;
        fill-rule: evenodd;
      }
    </style>
  </defs>
  <ellipse id="Circle" class="cls-1" cx="133" cy="141.73" rx="122.1" ry="141.73"/>
  <g id="Icon_4" data-name="Icon 4">
    <path class="cls-2" d="M97.53,139.26c0,8.75,7.1,15.85,15.85,15.85s15.85-7.1,15.85-15.85-7.1-15.85-15.85-15.85-15.85,7.1-15.85,15.85Z"/>
    <path class="cls-2" d="M169.16,99.81c0,6.93,5.62,12.55,12.55,12.55s12.55-5.62,12.55-12.55-5.62-12.55-12.55-12.55-12.55,5.62-12.55,12.55Z"/>
    <path class="cls-2" d="M204.97,80.09c0,6.02,4.88,10.9,10.9,10.9s10.9-4.88,10.9-10.9-4.88-10.9-10.9-10.9-10.9,4.88-10.9,10.9Z"/>
    <path class="cls-2" d="M133.34,119.53c0,7.84,6.36,14.2,14.2,14.2s14.2-6.36,14.2-14.2-6.36-14.2-14.2-14.2-14.2,6.36-14.2,14.2Z"/>
    <path class="cls-2" d="M107.43,20.92c0,3.29,2.66,5.95,5.95,5.95s5.95-2.67,5.95-5.95-2.66-5.95-5.95-5.95-5.95,2.66-5.95,5.95Z"/>
    <path class="cls-2" d="M172.45,60.37c0,5.11,4.14,9.25,9.25,9.25s9.25-4.14,9.25-9.25-4.14-9.25-9.25-9.25-9.25,4.14-9.25,9.25Z"/>
    <path class="cls-2" d="M139.94,40.64c0,4.2,3.4,7.6,7.6,7.6s7.6-3.4,7.6-7.6-3.4-7.6-7.6-7.6-7.6,3.4-7.6,7.6Z"/>
    <path class="cls-2" d="M65.02,119.54c0,7.84,6.36,14.2,14.2,14.2s14.2-6.36,14.2-14.2-6.36-14.2-14.2-14.2-14.2,6.36-14.2,14.2Z"/>
    <path class="cls-2" d="M100.83,99.81c0,6.93,5.62,12.55,12.55,12.55s12.55-5.62,12.55-12.55-5.62-12.55-12.55-12.55-12.55,5.62-12.55,12.55Z"/>
    <path class="cls-2" d="M32.51,99.81c0,6.93,5.62,12.55,12.55,12.55s12.55-5.62,12.55-12.55-5.62-12.55-12.55-12.55-12.55,5.62-12.55,12.55Z"/>
    <path class="cls-2" d="M0,80.09c0,6.02,4.88,10.9,10.9,10.9s10.9-4.88,10.9-10.9-4.88-10.9-10.9-10.9S0,74.07,0,80.09Z"/>
    <path class="cls-2" d="M136.64,80.09c0,6.02,4.88,10.9,10.9,10.9s10.9-4.88,10.9-10.9-4.88-10.9-10.9-10.9-10.9,4.88-10.9,10.9Z"/>
    <path class="cls-2" d="M68.32,80.09c0,6.02,4.88,10.9,10.9,10.9s10.9-4.88,10.9-10.9-4.88-10.9-10.9-10.9-10.9,4.88-10.9,10.9Z"/>
    <path class="cls-2" d="M35.81,60.37c0,5.11,4.14,9.25,9.25,9.25s9.25-4.14,9.25-9.25-4.14-9.25-9.25-9.25-9.25,4.14-9.25,9.25Z"/>
    <path class="cls-2" d="M104.13,60.37c0,5.11,4.14,9.25,9.25,9.25s9.25-4.14,9.25-9.25-4.14-9.25-9.25-9.25-9.25,4.14-9.25,9.25Z"/>
    <path class="cls-2" d="M71.62,40.64c0,4.2,3.4,7.6,7.6,7.6s7.6-3.4,7.6-7.6-3.4-7.6-7.6-7.6-7.6,3.4-7.6,7.6Z"/>
    <path class="cls-2" d="M99.18,178.71c0,7.84,6.36,14.2,14.2,14.2s14.2-6.36,14.2-14.2-6.36-14.2-14.2-14.2-14.2,6.36-14.2,14.2Z"/>
    <path class="cls-2" d="M66.67,158.98c0,6.93,5.62,12.55,12.55,12.55s12.55-5.62,12.55-12.55-5.62-12.55-12.55-12.55-12.55,5.62-12.55,12.55Z"/>
    <path class="cls-2" d="M134.99,158.98c0,6.93,5.62,12.55,12.55,12.55s12.55-5.62,12.55-12.55-5.62-12.55-12.55-12.55-12.55,5.62-12.55,12.55Z"/>
    <path class="cls-2" d="M100.83,218.15c0,6.93,5.62,12.55,12.55,12.55s12.55-5.62,12.55-12.55-5.62-12.55-12.55-12.55-12.55,5.62-12.55,12.55Z"/>
    <path class="cls-2" d="M102.48,257.6c0,6.02,4.88,10.9,10.9,10.9s10.9-4.88,10.9-10.9-4.88-10.9-10.9-10.9-10.9,4.88-10.9,10.9Z"/>
    <path class="cls-2" d="M34.16,139.26c0,6.02,4.88,10.9,10.9,10.9s10.9-4.88,10.9-10.9-4.88-10.9-10.9-10.9-10.9,4.88-10.9,10.9Z"/>
    <path class="cls-2" d="M68.32,198.43c0,6.02,4.88,10.9,10.9,10.9s10.9-4.88,10.9-10.9-4.88-10.9-10.9-10.9-10.9,4.88-10.9,10.9Z"/>
    <path class="cls-2" d="M170.8,139.26c0,6.02,4.88,10.9,10.9,10.9s10.9-4.88,10.9-10.9-4.88-10.9-10.9-10.9-10.9,4.88-10.9,10.9Z"/>
    <path class="cls-2" d="M136.64,198.43c0,6.02,4.88,10.9,10.9,10.9s10.9-4.88,10.9-10.9-4.88-10.9-10.9-10.9-10.9,4.88-10.9,10.9Z"/>
    <path class="cls-2" d="M206.61,119.53c0,5.11,4.14,9.25,9.25,9.25s9.25-4.14,9.25-9.25-4.14-9.25-9.25-9.25-9.25,4.14-9.25,9.25Z"/>
    <path class="cls-2" d="M1.65,119.53c0,5.11,4.14,9.25,9.25,9.25s9.25-4.14,9.25-9.25-4.14-9.25-9.25-9.25-9.25,4.14-9.25,9.25Z"/>
    <path class="cls-2" d="M69.97,237.87c0,5.11,4.14,9.25,9.25,9.25s9.25-4.14,9.25-9.25-4.14-9.25-9.25-9.25-9.25,4.14-9.25,9.25Z"/>
    <path class="cls-2" d="M138.29,237.87c0,5.11,4.14,9.25,9.25,9.25s9.25-4.14,9.25-9.25-4.14-9.25-9.25-9.25-9.25,4.14-9.25,9.25Z"/>
    <path class="cls-2" d="M172.45,178.7c0,5.11,4.14,9.25,9.25,9.25s9.25-4.14,9.25-9.25-4.14-9.25-9.25-9.25-9.25,4.14-9.25,9.25Z"/>
    <path class="cls-2" d="M35.81,178.7c0,5.11,4.14,9.25,9.25,9.25s9.25-4.14,9.25-9.25-4.14-9.25-9.25-9.25-9.25,4.14-9.25,9.25Z"/>
    <path class="cls-2" d="M208.26,158.98c0,4.2,3.41,7.6,7.6,7.6s7.6-3.4,7.6-7.6-3.4-7.6-7.6-7.6-7.6,3.4-7.6,7.6Z"/>
    <path class="cls-2" d="M174.1,218.15c0,4.2,3.4,7.6,7.6,7.6s7.6-3.4,7.6-7.6-3.4-7.6-7.6-7.6-7.6,3.41-7.6,7.61h0Z"/>
    <path class="cls-2" d="M37.46,218.15c0,4.2,3.4,7.6,7.6,7.6s7.6-3.4,7.6-7.6-3.4-7.6-7.6-7.6-7.6,3.41-7.6,7.61h0Z"/>
    <path class="cls-2" d="M3.3,158.98c0,4.2,3.4,7.6,7.6,7.6s7.6-3.4,7.6-7.6-3.4-7.6-7.6-7.6-7.6,3.4-7.6,7.6Z"/>
    <path class="cls-2" d="M4.95,198.43c0,3.29,2.66,5.95,5.95,5.95s5.95-2.66,5.95-5.95-2.67-5.95-5.95-5.95-5.95,2.66-5.95,5.95Z"/>
    <path class="cls-2" d="M209.91,198.43c0,3.29,2.66,5.95,5.95,5.95s5.95-2.66,5.95-5.95-2.66-5.95-5.95-5.95-5.95,2.66-5.95,5.95Z"/>
  </g>
</svg>